HIERARCHY
ROOT Hips
{
	OFFSET 0.000000 83.214638 0.000000
	CHANNELS 6 Xposition Yposition Zposition Xrotation Yrotation Zrotation
	JOINT Pelvis
	{
		OFFSET 0.000000 0.000000 0.000000
		CHANNELS 3 Xrotation Yrotation Zrotation
		JOINT LeftUpLeg
		{
			OFFSET 8.479700 -4.795502 -0.379100
			CHANNELS 3 Xrotation Yrotation Zrotation
			JOINT LeftLeg
			{
				OFFSET 0.024144 -32.555107 0.112900
				CHANNELS 3 Xrotation Yrotation Zrotation
				JOINT LeftFoot
				{
					OFFSET -0.024144 -32.638630 -3.012600
					CHANNELS 3 Xrotation Yrotation Zrotation
					JOINT LeftToeBase
					{
						OFFSET 0.970200 -13.225400 11.864200
						CHANNELS 3 Xrotation Yrotation Zrotation
						End Site
						{
							OFFSET 0.000000 12.319262 0.000000
						}
					}
					JOINT LFootTongue
					{
						OFFSET 1.142400 -1.059800 6.665200
						CHANNELS 3 Xrotation Yrotation Zrotation
						End Site
						{
							OFFSET 0.000000 12.319262 0.000000
						}
					}
				}
				JOINT LeftPantLeg
				{
					OFFSET 0.918482 -16.533964 -2.284700
					CHANNELS 3 Xrotation Yrotation Zrotation
					End Site
					{
						OFFSET 0.350399 24.744368 0.000000
					}
				}
			}
		}
		JOINT RightUpLeg
		{
			OFFSET -8.479700 -4.795502 -0.379100
			CHANNELS 3 Xrotation Yrotation Zrotation
			JOINT RightLeg
			{
				OFFSET -0.023144 -32.555092 0.112900
				CHANNELS 3 Xrotation Yrotation Zrotation
				JOINT RightFoot
				{
					OFFSET 0.023144 -32.638641 -3.012700
					CHANNELS 3 Xrotation Yrotation Zrotation
					JOINT RightToeBase
					{
						OFFSET -0.970200 -13.225400 11.864200
						CHANNELS 3 Xrotation Yrotation Zrotation
						End Site
						{
							OFFSET 0.000000 12.319244 0.000000
						}
					}
					JOINT RFootTongue
					{
						OFFSET -1.142200 -1.059800 6.665200
						CHANNELS 3 Xrotation Yrotation Zrotation
						End Site
						{
							OFFSET 0.000000 12.319243 0.000000
						}
					}
				}
				JOINT RightPantLeg
				{
					OFFSET -0.919482 -16.533978 -2.284800
					CHANNELS 3 Xrotation Yrotation Zrotation
					End Site
					{
						OFFSET -0.350400 24.744419 0.000000
					}
				}
			}
		}
	}
	JOINT Spine
	{
		OFFSET 0.000000 7.722000 1.166200
		CHANNELS 3 Xrotation Yrotation Zrotation
		JOINT Spine1
		{
			OFFSET 0.000000 12.024101 0.248800
			CHANNELS 3 Xrotation Yrotation Zrotation
			JOINT Spine2
			{
				OFFSET 0.000000 11.502998 -0.491200
				CHANNELS 3 Xrotation Yrotation Zrotation
				JOINT Neck
				{
					OFFSET 0.000000 18.430702 -3.123100
					CHANNELS 3 Xrotation Yrotation Zrotation
					JOINT Head
					{
						OFFSET 0.000000 9.051102 1.034000
						CHANNELS 3 Xrotation Yrotation Zrotation
						JOINT HairB
						{
							OFFSET 0.208400 24.786102 24.822300
							CHANNELS 3 Xrotation Yrotation Zrotation
							End Site
							{
								OFFSET 0.000000 32.263779 0.000000
							}
						}
						JOINT HairA
						{
							OFFSET -7.081100 24.428299 23.196600
							CHANNELS 3 Xrotation Yrotation Zrotation
							End Site
							{
								OFFSET 0.000000 32.263779 0.000000
							}
						}
						JOINT Hat
						{
							OFFSET 16.728800 15.048294 -15.439601
							CHANNELS 3 Xrotation Yrotation Zrotation
							End Site
							{
								OFFSET 0.000000 32.263779 0.000000
							}
						}
					}
				}
				JOINT LeftShoulder
				{
					OFFSET 6.197800 13.665199 -4.064700
					CHANNELS 3 Xrotation Yrotation Zrotation
					JOINT LeftArm
					{
						OFFSET 7.778100 -0.187103 -1.709300
						CHANNELS 3 Xrotation Yrotation Zrotation
						JOINT LeftForeArm
						{
							OFFSET 22.049376 0.000000 0.000000
							CHANNELS 3 Xrotation Yrotation Zrotation
							JOINT LeftHand
							{
								OFFSET 23.009392 0.000000 0.000000
								CHANNELS 3 Xrotation Yrotation Zrotation
								JOINT LeftHandThumb1
								{
									OFFSET 3.507191 -2.063065 3.133727
									CHANNELS 3 Xrotation Yrotation Zrotation
									JOINT LeftHandThumb2
									{
										OFFSET 3.101337 -1.790558 1.790558
										CHANNELS 3 Xrotation Yrotation Zrotation
										JOINT LeftHandThumb3
										{
											OFFSET 3.058640 -1.765907 1.765906
											CHANNELS 3 Xrotation Yrotation Zrotation
											End Site
											{
												OFFSET -0.415260 3.926476 -0.049563
											}
										}
									}
								}
								JOINT LeftHandIndex1
								{
									OFFSET 11.334419 -0.901459 3.706815
									CHANNELS 3 Xrotation Yrotation Zrotation
									JOINT LeftHandIndex2
									{
										OFFSET 3.283112 0.000000 0.000000
										CHANNELS 3 Xrotation Yrotation Zrotation
										JOINT LeftHandIndex3
										{
											OFFSET 3.323853 0.000000 0.000000
											CHANNELS 3 Xrotation Yrotation Zrotation
											End Site
											{
												OFFSET -1.135597 3.097809 0.402452
											}
										}
									}
								}
								JOINT LeftHandMiddle1
								{
									OFFSET 11.335861 0.000000 0.000000
									CHANNELS 3 Xrotation Yrotation Zrotation
									JOINT LeftHandMiddle2
									{
										OFFSET 3.410492 0.000000 0.000000
										CHANNELS 3 Xrotation Yrotation Zrotation
										JOINT LeftHandMiddle3
										{
											OFFSET 3.312172 0.000000 0.000000
											CHANNELS 3 Xrotation Yrotation Zrotation
											End Site
											{
												OFFSET -1.150200 3.080154 0.400270
											}
										}
									}
								}
								JOINT LeftHandRing1
								{
									OFFSET 11.514786 -0.013176 -3.003090
									CHANNELS 3 Xrotation Yrotation Zrotation
									JOINT LeftHandRing2
									{
										OFFSET 3.053307 0.000000 0.000000
										CHANNELS 3 Xrotation Yrotation Zrotation
										JOINT LeftHandRing3
										{
											OFFSET 3.295807 0.000000 0.000000
											CHANNELS 3 Xrotation Yrotation Zrotation
											End Site
											{
												OFFSET -1.281006 3.013344 0.375733
											}
										}
									}
								}
								JOINT LeftHandPinky1
								{
									OFFSET 10.518692 -0.960396 -5.730441
									CHANNELS 3 Xrotation Yrotation Zrotation
									JOINT LeftHandPinky2
									{
										OFFSET 2.861649 0.000000 0.000000
										CHANNELS 3 Xrotation Yrotation Zrotation
										JOINT LeftHandPinky3
										{
											OFFSET 2.863380 0.000000 0.000000
											CHANNELS 3 Xrotation Yrotation Zrotation
											End Site
											{
												OFFSET -0.843597 2.711159 0.369971
											}
										}
									}
								}
							}
							JOINT LSleeve
							{
								OFFSET 6.676277 -0.344902 -1.011730
								CHANNELS 3 Xrotation Yrotation Zrotation
								End Site
								{
									OFFSET 0.000000 14.885353 0.000000
								}
							}
						}
					}
				}
				JOINT RightShoulder
				{
					OFFSET -6.197800 13.665199 -4.064700
					CHANNELS 3 Xrotation Yrotation Zrotation
					JOINT RightArm
					{
						OFFSET -7.778100 -0.187103 -1.709300
						CHANNELS 3 Xrotation Yrotation Zrotation
						JOINT RightForeArm
						{
							OFFSET -22.049376 0.000000 0.000000
							CHANNELS 3 Xrotation Yrotation Zrotation
							JOINT RightHand
							{
								OFFSET -23.009392 0.000000 0.000000
								CHANNELS 3 Xrotation Yrotation Zrotation
								JOINT RightHandThumb1
								{
									OFFSET -3.507191 -2.063065 3.133727
									CHANNELS 3 Xrotation Yrotation Zrotation
									JOINT RightHandThumb2
									{
										OFFSET -3.101337 -1.790558 1.790558
										CHANNELS 3 Xrotation Yrotation Zrotation
										JOINT RightHandThumb3
										{
											OFFSET -3.058640 -1.765907 1.765906
											CHANNELS 3 Xrotation Yrotation Zrotation
											End Site
											{
												OFFSET 0.415260 3.926476 -0.049563
											}
										}
									}
								}
								JOINT RightHandIndex1
								{
									OFFSET -11.334419 -0.901459 3.706815
									CHANNELS 3 Xrotation Yrotation Zrotation
									JOINT RightHandIndex2
									{
										OFFSET -3.283112 0.000000 0.000000
										CHANNELS 3 Xrotation Yrotation Zrotation
										JOINT RightHandIndex3
										{
											OFFSET -3.323853 0.000000 0.000000
											CHANNELS 3 Xrotation Yrotation Zrotation
											End Site
											{
												OFFSET 1.135597 3.097809 0.402452
											}
										}
									}
								}
								JOINT RightHandMiddle1
								{
									OFFSET -11.335861 0.000000 0.000000
									CHANNELS 3 Xrotation Yrotation Zrotation
									JOINT RightHandMiddle2
									{
										OFFSET -3.410492 0.000000 0.000000
										CHANNELS 3 Xrotation Yrotation Zrotation
										JOINT RightHandMiddle3
										{
											OFFSET -3.312172 0.000000 0.000000
											CHANNELS 3 Xrotation Yrotation Zrotation
											End Site
											{
												OFFSET 1.150200 3.080154 0.400270
											}
										}
									}
								}
								JOINT RightHandRing1
								{
									OFFSET -11.514786 -0.013176 -3.003090
									CHANNELS 3 Xrotation Yrotation Zrotation
									JOINT RightHandRing2
									{
										OFFSET -3.053307 0.000000 0.000000
										CHANNELS 3 Xrotation Yrotation Zrotation
										JOINT RightHandRing3
										{
											OFFSET -3.295807 0.000000 0.000000
											CHANNELS 3 Xrotation Yrotation Zrotation
											End Site
											{
												OFFSET 1.281006 3.013344 0.375733
											}
										}
									}
								}
								JOINT RightHandPinky1
								{
									OFFSET -10.518692 -0.960396 -5.730441
									CHANNELS 3 Xrotation Yrotation Zrotation
									JOINT RightHandPinky2
									{
										OFFSET -2.861649 0.000000 0.000000
										CHANNELS 3 Xrotation Yrotation Zrotation
										JOINT RightHandPinky3
										{
											OFFSET -2.863380 0.000000 0.000000
											CHANNELS 3 Xrotation Yrotation Zrotation
											End Site
											{
												OFFSET 0.843597 2.711159 0.369971
											}
										}
									}
								}
							}
							JOINT RSleeve
							{
								OFFSET -6.676277 -0.344902 -1.011730
								CHANNELS 3 Xrotation Yrotation Zrotation
								End Site
								{
									OFFSET 0.000000 14.885353 0.000000
								}
							}
						}
					}
				}
				JOINT Backpack
				{
					OFFSET 0.000000 -2.471497 36.677502
					CHANNELS 3 Xrotation Yrotation Zrotation
					End Site
					{
						OFFSET 0.000000 20.427315 0.000000
					}
				}
				JOINT Hood
				{
					OFFSET 0.000000 18.754097 -10.431000
					CHANNELS 3 Xrotation Yrotation Zrotation
					JOINT Hood1
					{
						OFFSET 0.000000 -5.011002 -7.685901
						CHANNELS 3 Xrotation Yrotation Zrotation
						End Site
						{
							OFFSET 0.000000 9.175140 0.000000
						}
					}
				}
				JOINT LHoodieString
				{
					OFFSET 5.250500 16.397697 3.089900
					CHANNELS 3 Xrotation Yrotation Zrotation
					JOINT LHoodieString1
					{
						OFFSET 0.257700 -6.364304 3.694600
						CHANNELS 3 Xrotation Yrotation Zrotation
						JOINT LHoodieString2
						{
							OFFSET 0.000000 -9.643799 2.679100
							CHANNELS 3 Xrotation Yrotation Zrotation
							End Site
							{
								OFFSET 0.000000 10.009018 0.000000
							}
						}
					}
				}
				JOINT RHoodieString
				{
					OFFSET -5.250500 16.397697 3.089900
					CHANNELS 3 Xrotation Yrotation Zrotation
					JOINT RHoodieString1
					{
						OFFSET -0.257700 -6.364304 3.694600
						CHANNELS 3 Xrotation Yrotation Zrotation
						JOINT RHoodieString2
						{
							OFFSET 0.000000 -9.643799 2.679100
							CHANNELS 3 Xrotation Yrotation Zrotation
							End Site
							{
								OFFSET 0.000000 10.009018 0.000000
							}
						}
					}
				}
			}
			JOINT LBackpack_Strap
			{
				OFFSET 15.223200 -7.719803 -6.610900
				CHANNELS 3 Xrotation Yrotation Zrotation
				End Site
				{
					OFFSET 0.000000 16.040596 0.000000
				}
			}
			JOINT RBackpack_Strap
			{
				OFFSET -15.223000 -7.719803 -6.610900
				CHANNELS 3 Xrotation Yrotation Zrotation
				End Site
				{
					OFFSET 0.000000 16.040596 0.000000
				}
			}
		}
	}
	JOINT BoyFacialAnim_Joint
	{
		OFFSET 1.000000 -82.208099 -1.550900
		CHANNELS 3 Xrotation Yrotation Zrotation
		End Site
		{
			OFFSET 0.000000 30.012791 0.000000
		}
	}
}
MOTION
Frames: 5
Frame Time: 0.016667
-0.588198 80.405891 0.093877 -19.801004 -82.304784 -21.016957 -0.000000 -0.000000 0.000000 -17.820706 14.832582 9.603647 28.144104 -2.995656 5.079105 -8.826564 1.209709 -7.155174 0.000000 0.000002 0.000000 0.000000 0.000002 0.000000 -0.000001 -0.000003 0.000000 -12.955417 -23.320592 -8.727974 23.074215 8.778347 -8.833940 -8.574598 -1.341389 11.058311 0.000000 -0.000001 -0.000000 0.000000 -0.000001 -0.000000 0.000000 0.000001 0.000000 2.270980 0.115040 0.071421 4.588851 0.048045 1.587649 4.566500 0.058995 1.631779 -6.449450 9.163134 -4.228988 1.306332 37.856665 -3.127864 0.000001 0.000001 -0.000000 0.000001 0.000001 -0.000000 0.000001 0.000001 -0.000000 -0.232475 4.637870 -1.359674 25.122269 -77.231237 -42.206191 -0.000008 -14.145783 -0.000001 -51.489886 1.622347 10.545755 -3.708760 -5.344632 -9.285598 10.685392 16.536434 0.020099 0.000001 -0.000001 0.000001 0.013966 0.439239 -3.642311 0.025896 0.597751 -4.959533 -0.000001 0.000002 -0.000003 0.013843 0.437324 -3.626338 0.026049 0.599673 -4.975520 0.000001 0.000001 -0.000001 0.013965 0.439247 -3.642326 0.025890 0.597754 -4.959535 -0.000001 -0.000000 -0.000002 0.254043 4.486452 -3.142206 0.013181 -3.456760 -5.468406 -0.000002 0.000001 -0.000002 -0.000000 0.000000 0.000000 1.612993 4.329175 7.043633 8.595130 25.593740 60.579523 -0.000008 32.803674 -0.000006 -7.794412 -23.342757 -5.537471 37.238048 11.415897 9.503658 21.038902 -27.717283 1.484836 -0.000000 -0.000002 0.000000 2.191293 -5.070370 46.723521 2.298126 -5.168484 47.920771 -0.000002 0.000001 0.000004 2.191284 -5.070360 46.723521 2.298118 -5.168488 47.920781 0.000000 -0.000004 0.000003 2.191290 -5.070346 46.723511 2.298109 -5.168479 47.920785 -0.000001 -0.000001 -0.000002 2.191289 -5.070342 46.723511 2.298119 -5.168487 47.920778 -0.000001 0.000004 0.000003 0.000005 0.000001 -0.000001 -0.000000 0.000000 0.000000 -0.000000 0.000000 0.000000 -0.000000 0.000000 0.000000 -0.000000 0.000000 0.000000 -0.000000 0.000000 -0.000000 -0.000000 0.000000 -0.000000 -0.000000 0.000000 0.000000 -0.000000 0.000000 -0.000000 -0.000000 0.000000 -0.000000 0.000000 -0.000000 0.000000 0.000000 -0.000000 0.000000 -0.000000 -0.000000 0.000000 
-0.592902 80.410904 0.090700 -19.918092 -82.295850 -21.130005 -0.000000 -0.000000 -0.000000 -17.785459 14.845776 9.589855 28.111322 -2.996114 5.092984 -8.810719 1.211742 -7.160377 0.000000 0.000002 0.000000 0.000000 0.000002 0.000000 0.000000 -0.000000 -0.000000 -12.915442 -23.334518 -8.725318 23.041235 8.787477 -8.833687 -8.564774 -1.341232 11.059050 0.000000 -0.000000 -0.000000 0.000000 -0.000000 -0.000000 -0.000000 -0.000001 -0.000000 2.266139 0.105640 0.073564 4.580604 0.031468 1.605107 4.558149 0.042193 1.649043 -6.406089 9.181267 -4.285428 1.307515 37.876773 -3.128334 -0.000000 -0.000001 -0.000000 -0.000000 -0.000001 -0.000000 -0.000000 -0.000001 -0.000000 -0.234248 4.680282 -1.477821 26.581607 -77.401985 -40.727506 0.000005 -14.148542 -0.000010 -51.846494 1.696087 10.532959 -3.708765 -5.344632 -9.285593 10.685391 16.536431 0.020099 0.000001 -0.000000 0.000002 0.013966 0.439240 -3.642313 0.025892 0.597752 -4.959533 -0.000001 0.000001 -0.000002 0.013844 0.437324 -3.626336 0.026050 0.599673 -4.975520 0.000002 -0.000001 -0.000002 0.013967 0.439246 -3.642316 0.025894 0.597753 -4.959542 -0.000002 0.000000 -0.000002 0.254043 4.486449 -3.142207 0.013179 -3.456760 -5.468403 -0.000001 -0.000001 -0.000002 0.000001 -0.000000 0.000001 1.618816 4.365955 6.951330 8.569720 25.644838 60.639171 0.000012 32.733934 -0.000026 -7.806381 -23.236734 -5.557153 37.238198 11.416005 9.503722 21.038975 -27.717374 1.484850 -0.000000 0.000001 0.000000 2.191291 -5.070384 46.723521 2.298132 -5.168484 47.920775 -0.000001 -0.000001 0.000002 2.191288 -5.070380 46.723514 2.298123 -5.168470 47.920768 -0.000001 -0.000004 -0.000002 2.191283 -5.070364 46.723521 2.298113 -5.168472 47.920775 -0.000003 -0.000004 -0.000000 2.191283 -5.070354 46.723511 2.298118 -5.168481 47.920778 0.000001 0.000002 -0.000001 -0.000003 0.000000 0.000001 0.000001 0.000000 -0.000000 0.000001 0.000000 -0.000000 0.000001 0.000000 -0.000000 0.000001 0.000000 -0.000000 0.000001 0.000000 0.000000 -0.000000 0.000000 0.000000 0.000001 0.000000 -0.000000 0.000001 0.000000 0.000000 -0.000000 0.000000 0.000000 0.000000 0.000000 0.000000 0.000000 0.000000 0.000000 -0.000000 -0.000000 -0.000000 
-0.597924 80.416214 0.087539 -20.033553 -82.286526 -21.246497 -0.000000 -0.000000 -0.000000 -17.749181 14.844644 9.583911 28.080632 -2.992513 5.099301 -8.797903 1.212938 -7.166109 -0.000000 0.000000 -0.000000 -0.000000 0.000000 0.000000 -0.000000 -0.000001 -0.000000 -12.869290 -23.341862 -8.718347 23.002195 8.790260 -8.823600 -8.552401 -1.340417 11.056201 0.000000 -0.000000 0.000000 0.000000 -0.000000 0.000000 0.000000 0.000000 -0.000000 2.259341 0.093693 0.080485 4.568351 0.010006 1.625760 4.545687 0.020624 1.669544 -6.358689 9.200883 -4.344188 1.308285 37.902550 -3.127767 -0.000000 -0.000001 -0.000000 -0.000000 -0.000001 -0.000000 -0.000000 -0.000001 -0.000000 -0.236517 4.731576 -1.616344 28.224964 -77.569079 -39.068207 0.000001 -14.159479 -0.000010 -52.203218 1.758397 10.523196 -3.708765 -5.344629 -9.285595 10.685393 16.536433 0.020098 0.000000 0.000001 0.000001 0.013964 0.439242 -3.642313 0.025892 0.597751 -4.959529 -0.000000 -0.000002 -0.000002 0.013843 0.437327 -3.626340 0.026051 0.599674 -4.975521 -0.000002 -0.000002 -0.000002 0.013968 0.439247 -3.642318 0.025894 0.597754 -4.959534 0.000001 -0.000002 -0.000001 0.254045 4.486452 -3.142208 0.013180 -3.456762 -5.468403 -0.000001 -0.000002 -0.000001 -0.000002 0.000000 0.000002 1.625858 4.410173 6.848793 8.546702 25.709163 60.700991 0.000006 32.649670 -0.000016 -7.850795 -23.139276 -5.600563 37.238376 11.416116 9.503754 21.039062 -27.717459 1.484845 0.000000 -0.000000 0.000000 2.191284 -5.070372 46.723500 2.298121 -5.168484 47.920781 0.000001 0.000006 0.000003 2.191291 -5.070369 46.723504 2.298118 -5.168469 47.920771 0.000001 -0.000004 0.000003 2.191285 -5.070359 46.723504 2.298127 -5.168484 47.920788 0.000000 -0.000001 0.000000 2.191294 -5.070357 46.723514 2.298135 -5.168495 47.920775 0.000000 0.000001 -0.000001 -0.000000 0.000001 -0.000001 -0.000000 0.000001 -0.000000 -0.000000 0.000001 -0.000000 -0.000000 0.000001 -0.000000 -0.000000 0.000001 -0.000000 -0.000000 0.000001 -0.000000 -0.000000 0.000001 0.000000 -0.000000 0.000001 -0.000000 -0.000000 0.000001 -0.000000 -0.000000 0.000001 0.000000 -0.000001 -0.000000 0.000000 -0.000001 -0.000000 0.000000 -0.000000 -0.000000 -0.000000 
-0.602807 80.421844 0.084699 -20.138316 -82.275707 -21.356910 0.000000 0.000000 -0.000000 -17.712272 14.829546 9.583274 28.050277 -2.985541 5.100306 -8.786564 1.213386 -7.172602 0.000000 0.000002 -0.000000 0.000000 0.000002 -0.000000 0.000001 0.000002 0.000000 -12.818528 -23.344214 -8.708633 22.957219 8.787242 -8.803432 -8.537229 -1.339041 11.049847 0.000000 -0.000000 0.000000 0.000000 -0.000000 0.000000 -0.000001 -0.000000 -0.000001 2.251498 0.079867 0.092767 4.553622 -0.015323 1.649034 4.530654 -0.004746 1.692760 -6.309807 9.221834 -4.404453 1.308204 37.933310 -3.125745 0.000000 0.000000 0.000000 0.000000 0.000000 0.000000 0.000000 0.000000 0.000000 -0.239166 4.791742 -1.775043 30.042580 -77.727191 -37.237300 0.000007 -14.178584 0.000014 -52.563753 1.800030 10.528885 -3.708765 -5.344629 -9.285599 10.685396 16.536429 0.020099 0.000002 0.000001 -0.000000 0.013962 0.439240 -3.642313 0.025895 0.597754 -4.959536 -0.000000 0.000002 -0.000005 0.013838 0.437326 -3.626334 0.026048 0.599672 -4.975519 -0.000001 -0.000000 -0.000000 0.013963 0.439247 -3.642322 0.025893 0.597755 -4.959530 -0.000003 0.000001 -0.000002 0.254040 4.486452 -3.142214 0.013184 -3.456762 -5.468405 0.000000 0.000001 0.000000 -0.000001 0.000000 0.000001 1.633871 4.460056 6.738922 8.526320 25.781078 60.764785 0.000008 32.555274 -0.000015 -7.926607 -23.053072 -5.669098 37.238533 11.416241 9.503795 21.039141 -27.717543 1.484868 -0.000000 0.000002 -0.000000 2.191272 -5.070366 46.723494 2.298132 -5.168474 47.920761 -0.000002 0.000003 0.000002 2.191270 -5.070353 46.723480 2.298120 -5.168469 47.920768 -0.000001 -0.000003 -0.000000 2.191266 -5.070347 46.723494 2.298122 -5.168469 47.920775 -0.000000 0.000000 -0.000001 2.191270 -5.070340 46.723497 2.298125 -5.168480 47.920771 0.000000 0.000002 -0.000001 -0.000003 0.000000 -0.000000 -0.000000 -0.000000 -0.000000 -0.000000 -0.000000 -0.000000 -0.000000 -0.000000 -0.000000 -0.000000 -0.000000 -0.000000 -0.000000 -0.000000 -0.000000 -0.000000 -0.000000 -0.000000 -0.000000 -0.000000 -0.000000 -0.000000 -0.000000 -0.000000 -0.000000 -0.000000 -0.000000 0.000000 0.000000 -0.000000 0.000000 0.000000 -0.000000 0.000000 0.000000 -0.000000 
-0.606575 80.427612 0.082122 -20.219100 -82.262532 -21.446683 -0.000000 -0.000000 -0.000000 -17.677998 14.800672 9.583874 28.021524 -2.973916 5.099771 -8.775672 1.213173 -7.180625 -0.000000 0.000003 -0.000000 -0.000000 0.000003 0.000000 -0.000000 0.000001 -0.000000 -12.767123 -23.344702 -8.697584 22.908219 8.779725 -8.776392 -8.519431 -1.337353 11.041173 -0.000000 0.000001 0.000000 -0.000000 0.000001 0.000000 0.000000 -0.000000 -0.000000 2.243852 0.065353 0.110519 4.538628 -0.042548 1.674178 4.515266 -0.031855 1.717975 -6.262548 9.243666 -4.465039 1.306199 37.967772 -3.122502 0.000000 -0.000003 -0.000000 0.000000 -0.000003 -0.000000 0.000000 -0.000003 -0.000000 -0.241921 4.857630 -1.946193 31.985943 -77.874013 -35.281417 -0.000001 -14.201005 0.000001 -52.937046 1.809536 10.559747 -3.708765 -5.344631 -9.285594 10.685392 16.536434 0.020096 0.000001 -0.000001 0.000002 0.013966 0.439240 -3.642313 0.025896 0.597753 -4.959534 0.000000 0.000001 -0.000000 0.013843 0.437324 -3.626336 0.026047 0.599674 -4.975520 0.000000 -0.000001 -0.000002 0.013966 0.439247 -3.642321 0.025890 0.597757 -4.959531 -0.000003 0.000000 0.000001 0.254047 4.486451 -3.142210 0.013181 -3.456759 -5.468403 -0.000001 0.000000 -0.000000 -0.000001 -0.000001 0.000001 1.642504 4.513236 6.629210 8.509109 25.847481 60.828456 -0.000003 32.462195 0.000010 -8.022619 -22.982048 -5.759604 37.238710 11.416362 9.503862 21.039218 -27.717633 1.484865 -0.000000 0.000001 -0.000000 2.191277 -5.070364 46.723490 2.298121 -5.168486 47.920747 0.000002 -0.000000 0.000005 2.191271 -5.070361 46.723483 2.298115 -5.168485 47.920761 0.000001 -0.000001 -0.000000 2.191272 -5.070353 46.723490 2.298113 -5.168481 47.920751 -0.000001 0.000000 0.000000 2.191282 -5.070345 46.723494 2.298127 -5.168491 47.920754 -0.000001 -0.000001 -0.000003 0.000000 0.000002 -0.000001 0.000001 0.000000 0.000000 0.000001 0.000000 0.000000 0.000001 0.000000 0.000000 0.000001 0.000000 0.000000 0.000001 0.000000 0.000000 0.000001 0.000000 0.000000 0.000001 0.000000 0.000000 0.000001 0.000000 0.000000 0.000001 0.000000 0.000000 -0.000000 0.000000 -0.000000 -0.000000 0.000000 -0.000000 -0.000000 -0.000000 -0.000000 
